<svg xmlns="http://www.w3.org/2000/svg" width="33" height="32" viewBox="0 0 33 32" fill="none">
  <path d="M32.5 25.3333V10.6667H0.5V25.3333C0.5 27.1014 1.20238 28.7971 2.45262 30.0474C3.70286 31.2976 5.39856 32 7.16667 32H25.8333C27.6014 32 29.2971 31.2976 30.5474 30.0474C31.7976 28.7971 32.5 27.1014 32.5 25.3333ZM11.1587 16.6613C11.1587 17.1907 10.9484 17.6984 10.5741 18.0727C10.1997 18.447 9.69204 18.6573 9.16267 18.6573C8.63329 18.6573 8.1256 18.447 7.75128 18.0727C7.37696 17.6984 7.16667 17.1907 7.16667 16.6613C7.16667 16.132 7.37696 15.6243 7.75128 15.2499C8.1256 14.8756 8.63329 14.6653 9.16267 14.6653C9.69204 14.6653 10.1997 14.8756 10.5741 15.2499C10.9484 15.6243 11.1587 16.132 11.1587 16.6613ZM11.1587 23.328C11.1587 23.8574 10.9484 24.3651 10.5741 24.7394C10.1997 25.1137 9.69204 25.324 9.16267 25.324C8.63329 25.324 8.1256 25.1137 7.75128 24.7394C7.37696 24.3651 7.16667 23.8574 7.16667 23.328C7.16667 22.7986 7.37696 22.2909 7.75128 21.9166C8.1256 21.5423 8.63329 21.332 9.16267 21.332C9.69204 21.332 10.1997 21.5423 10.5741 21.9166C10.9484 22.2909 11.1587 22.7986 11.1587 23.328ZM18.4973 16.6613C18.4973 17.1907 18.287 17.6984 17.9127 18.0727C17.5384 18.447 17.0307 18.6573 16.5013 18.6573C15.972 18.6573 15.4643 18.447 15.0899 18.0727C14.7156 17.6984 14.5053 17.1907 14.5053 16.6613C14.5053 16.132 14.7156 15.6243 15.0899 15.2499C15.4643 14.8756 15.972 14.6653 16.5013 14.6653C17.0307 14.6653 17.5384 14.8756 17.9127 15.2499C18.287 15.6243 18.4973 16.132 18.4973 16.6613ZM18.4973 23.328C18.4973 23.8574 18.287 24.3651 17.9127 24.7394C17.5384 25.1137 17.0307 25.324 16.5013 25.324C15.972 25.324 15.4643 25.1137 15.0899 24.7394C14.7156 24.3651 14.5053 23.8574 14.5053 23.328C14.5053 22.7986 14.7156 22.2909 15.0899 21.9166C15.4643 21.5423 15.972 21.332 16.5013 21.332C17.0307 21.332 17.5384 21.5423 17.9127 21.9166C18.287 22.2909 18.4973 22.7986 18.4973 23.328ZM25.8253 16.6613C25.8253 17.1907 25.615 17.6984 25.2407 18.0727C24.8664 18.447 24.3587 18.6573 23.8293 18.6573C23.3 18.6573 22.7923 18.447 22.4179 18.0727C22.0436 17.6984 21.8333 17.1907 21.8333 16.6613C21.8333 16.132 22.0436 15.6243 22.4179 15.2499C22.7923 14.8756 23.3 14.6653 23.8293 14.6653C24.3587 14.6653 24.8664 14.8756 25.2407 15.2499C25.615 15.6243 25.8253 16.132 25.8253 16.6613ZM32.5 6.66667C32.5 4.89856 31.7976 3.20286 30.5474 1.95262C29.2971 0.702379 27.6014 0 25.8333 0H7.16667C5.39856 0 3.70286 0.702379 2.45262 1.95262C1.20238 3.20286 0.5 4.89856 0.5 6.66667V8H32.5V6.66667Z" fill="white"/>
</svg>