<svg xmlns="http://www.w3.org/2000/svg" width="27" height="32" viewBox="0 0 27 32" fill="none">
  <path d="M5.375 0H21.625C22.9179 0 24.1579 0.505713 25.0721 1.40589C25.9864 2.30606 26.5 3.52696 26.5 4.8V27.2C26.5 28.473 25.9864 29.6939 25.0721 30.5941C24.1579 31.4943 22.9179 32 21.625 32H5.375C4.08207 32 2.84209 31.4943 1.92785 30.5941C1.01361 29.6939 0.5 28.473 0.5 27.2L0.5 4.8C0.5 3.52696 1.01361 2.30606 1.92785 1.40589C2.84209 0.505713 4.08207 0 5.375 0ZM7 11.2C6.56902 11.2 6.1557 11.3686 5.85095 11.6686C5.5462 11.9687 5.375 12.3757 5.375 12.8C5.375 13.2243 5.5462 13.6313 5.85095 13.9314C6.1557 14.2314 6.56902 14.4 7 14.4H20C20.431 14.4 20.8443 14.2314 21.149 13.9314C21.4538 13.6313 21.625 13.2243 21.625 12.8C21.625 12.3757 21.4538 11.9687 21.149 11.6686C20.8443 11.3686 20.431 11.2 20 11.2H7ZM7 24C6.56902 24 6.1557 24.1686 5.85095 24.4686C5.5462 24.7687 5.375 25.1757 5.375 25.6C5.375 26.0243 5.5462 26.4313 5.85095 26.7314C6.1557 27.0314 6.56902 27.2 7 27.2H15.125C15.556 27.2 15.9693 27.0314 16.274 26.7314C16.5788 26.4313 16.75 26.0243 16.75 25.6C16.75 25.1757 16.5788 24.7687 16.274 24.4686C15.9693 24.1686 15.556 24 15.125 24H7ZM7 4.8C6.56902 4.8 6.1557 4.96857 5.85095 5.26863C5.5462 5.56869 5.375 5.97565 5.375 6.4C5.375 6.82435 5.5462 7.23131 5.85095 7.53137C6.1557 7.83143 6.56902 8 7 8H20C20.431 8 20.8443 7.83143 21.149 7.53137C21.4538 7.23131 21.625 6.82435 21.625 6.4C21.625 5.97565 21.4538 5.56869 21.149 5.26863C20.8443 4.96857 20.431 4.8 20 4.8H7ZM7 17.6C6.56902 17.6 6.1557 17.7686 5.85095 18.0686C5.5462 18.3687 5.375 18.7757 5.375 19.2C5.375 19.6243 5.5462 20.0313 5.85095 20.3314C6.1557 20.6314 6.56902 20.8 7 20.8H20C20.431 20.8 20.8443 20.6314 21.149 20.3314C21.4538 20.0313 21.625 19.6243 21.625 19.2C21.625 18.7757 21.4538 18.3687 21.149 18.0686C20.8443 17.7686 20.431 17.6 20 17.6H7Z" fill="white"/>
</svg>